# xmcd
#
# Track frame offsets:
#	150
#	12920
#	29405
#	43402
#	56914
#	71312
#	84002
#	98722
#	117120
#	135237
#	148812
#	163905
#	181657
#
# Disc length: 2612 seconds
#
# Revision: 0
# Processed by: cddbd v1.5.2PL0 Copyright (c) Steve Scherf et al.
# Submitted via: EasyCDDAExtractor 2010.4.0.0
#
DISCID=a80a320d
DTITLE=Lil Malcom and the House Rockers
DYEAR=1996
DGENRE=zydeco
TTITLE0=I'm just a little boy
TTITLE1=Going to the country
TTITLE2=Donkey
TTITLE3=Oh Papee
TTITLE4=Give it up
TTITLE5=Let's have a ball
TTITLE6=Poonanny
TTITLE7=Gumbo Reggae
TTITLE8=No need to cry
TTITLE9=Stand up
TTITLE10=Which way will we go
TTITLE11=I'm a good boy
TTITLE12=This is how we do it
EXTD=
EXTT0=
EXTT1=
EXTT2=
EXTT3=
EXTT4=
EXTT5=
EXTT6=
EXTT7=
EXTT8=
EXTT9=
EXTT10=
EXTT11=
EXTT12=
PLAYORDER=
